# xmcd
#
# Track frame offsets:
#	150
#	15285
#	29275
#	46450
#	61262
#	81060
#	104815
#	118482
#	132115
#	145432
#	158772
#	168760
#	179832
#	199640
#	217077
#	242765
#
# Disc length: 3249 seconds
#
# Revision: 1
# Processed by: cddbd v1.5.2PL0 Copyright (c) Steve Scherf et al.
# Submitted via: audiograbber 1.83.01
#
DISCID=e60caf10
DTITLE=Various Artist - SC7539
DYEAR=1900
DGENRE=KARAOKE
TTITLE0=Murray, Anne - Just Another Woman In Love
TTITLE1=Murray, Anne - I just Fall In Love Again
TTITLE2=Newton, Juice - Queen Of Hearts
TTITLE3=Clilne, Patsy - So Wrong
TTITLE4=Williams, Don - I Believe In You
TTITLE5=Denver, John - Rocky Mountain High
TTITLE6=Williams, Hank - I'm So Lonesome I Could Cry
TTITLE7=Fender, Freddy - Wasted Days And Wasted Nights
TTITLE8=Gibson, Don - Oh Lonesome Me
TTITLE9=Preston, Johnny - Running Bear
TTITLE10=Miller, Roger - Dang Me
TTITLE11=Haggard, Merle - Mama Tried
TTITLE12=Lee, Johnny - Lookin' For Love
TTITLE13=Milsap, Ronnie - It Was Almost Like A Song
TTITLE14=Campbell, Glenn - By The Time I get To Phoenix
TTITLE15=Data
EXTD=This one is correct, not the one that says 7540!
EXTT0=
EXTT1=
EXTT2=
EXTT3=
EXTT4=
EXTT5=
EXTT6=
EXTT7=
EXTT8=
EXTT9=
EXTT10=
EXTT11=
EXTT12=
EXTT13=
EXTT14=
EXTT15=
PLAYORDER=
